<svg xmlns="http://www.w3.org/2000/svg" viewBox="0 0 56.01 43.53"><defs><style>.cls-1{fill:#0090ff;}.cls-2{fill:#fff;}</style></defs><title>Y-(未点击)</title><g id="图层_2" data-name="图层 2"><g id="图层_1-2" data-name="图层 1"><path class="cls-1" d="M34.25,0H0A32.78,32.78,0,0,1,8.28,21.74,32.78,32.78,0,0,1,0,43.53H34.25A21.76,21.76,0,0,0,56,21.76h0A21.76,21.76,0,0,0,34.25,0Z"/><path class="cls-2" d="M30.16,22.77l-2.65-5.48H29l1,2.34c.28.66.53,1.27.83,1.94h0c.29-.67.58-1.28.84-1.94l1-2.34h1.45l-2.66,5.48v3.35H30.16Z"/><path class="cls-2" d="M33.81,22.22H37v1H33.81Z"/></g></g></svg>
