<svg xmlns="http://www.w3.org/2000/svg" viewBox="0 0 56.01 43.53"><defs><style>.cls-1{fill:#0090ff;}.cls-2{fill:#fff;}</style></defs><title>Y+(未点击)</title><g id="图层_2" data-name="图层 2"><g id="图层_1-2" data-name="图层 1"><path class="cls-1" d="M47.73,21.74A32.78,32.78,0,0,1,56,0H21.76A21.76,21.76,0,0,0,0,21.76H0A21.76,21.76,0,0,0,21.76,43.53H56A32.78,32.78,0,0,1,47.73,21.74Z"/><path class="cls-2" d="M20.36,22.77l-2.65-5.48H19.2l1,2.34c.28.66.53,1.27.83,1.94h0c.29-.67.58-1.28.84-1.94l1-2.34h1.45l-2.66,5.48v3.35H20.36Z"/><path class="cls-2" d="M27.27,22.17H24.84v-1h2.44V18.57h1.06v2.59h2.43v1H28.33v2.59H27.27Z"/></g></g></svg>
