<svg xmlns="http://www.w3.org/2000/svg" viewBox="0 0 43.53 56.02"><defs><style>.cls-1{fill:#0090ff;}.cls-2{fill:#fff;}</style></defs><title>X-(未点击)</title><g id="图层_2" data-name="图层 2"><g id="图层_1-2" data-name="图层 1"><path class="cls-1" d="M21.76,8.26A32.78,32.78,0,0,1,0,0V34.25A21.76,21.76,0,0,0,21.76,56h0A21.76,21.76,0,0,0,43.53,34.25V0A32.78,32.78,0,0,1,21.76,8.26Z"/><path class="cls-2" d="M19,31.65,16.6,27.38h1.55l1.07,2.06c.22.41.41.8.67,1.33h.06c.23-.53.4-.92.6-1.33l1-2.06H23l-2.37,4.34,2.54,4.49H21.67L20.51,34l-.73-1.44h0c-.25.54-.47,1-.68,1.44l-1.13,2.19H16.44Z"/><path class="cls-2" d="M23.56,32.31h3.17v1H23.56Z"/></g></g></svg>
