<svg xmlns="http://www.w3.org/2000/svg" viewBox="0 0 43.53 55.97"><defs><style>.cls-1{fill:#0090ff;}.cls-2{fill:#fff;}</style></defs><title>X+(未点击)</title><g id="图层_2" data-name="图层 2"><g id="图层_1-2" data-name="图层 1"><path class="cls-1" d="M21.76,47.71A32.78,32.78,0,0,1,43.53,56V21.76A21.76,21.76,0,0,0,21.76,0h0A21.76,21.76,0,0,0,0,21.76V56A32.78,32.78,0,0,1,21.76,47.71Z"/><path class="cls-2" d="M17.49,26.5l-2.37-4.27h1.55l1.07,2.06c.22.41.41.8.67,1.33h.06c.23-.53.4-.92.6-1.33l1-2.06h1.46l-2.37,4.34,2.54,4.49H20.19L19,28.86l-.73-1.44h0c-.25.54-.47,1-.68,1.44l-1.13,2.19H15Z"/><path class="cls-2" d="M24.81,27.11H22.37v-1h2.44V23.51h1.06v2.59H28.3v1H25.87V29.7H24.81Z"/></g></g></svg>
